<mxfile host="app.diagrams.net" agent="Mozilla/5.0 (Windows NT 10.0; Win64; x64) AppleWebKit/537.36 (KHTML, like Gecko) Chrome/131.0.0.0 Safari/537.36" version="25.0.1">
  <diagram name="PÃ¡gina-1" id="jlFw3KispWewgdfmhL-j">
    <mxGraphModel dx="1147" dy="590" grid="1" gridSize="10" guides="1" tooltips="1" connect="1" arrows="1" fold="1" page="1" pageScale="1" pageWidth="827" pageHeight="1169" math="0" shadow="0">
      <root>
        <mxCell id="0" />
        <mxCell id="1" parent="0" />
        <mxCell id="eITNYbEl-B6l7h9wtZzs-27" style="edgeStyle=orthogonalEdgeStyle;rounded=0;orthogonalLoop=1;jettySize=auto;html=1;exitX=0.5;exitY=1;exitDx=0;exitDy=0;entryX=0.5;entryY=0;entryDx=0;entryDy=0;" edge="1" parent="1" source="eITNYbEl-B6l7h9wtZzs-1" target="eITNYbEl-B6l7h9wtZzs-2">
          <mxGeometry relative="1" as="geometry" />
        </mxCell>
        <mxCell id="eITNYbEl-B6l7h9wtZzs-28" style="edgeStyle=orthogonalEdgeStyle;rounded=0;orthogonalLoop=1;jettySize=auto;html=1;exitX=0.5;exitY=1;exitDx=0;exitDy=0;entryX=0.5;entryY=0;entryDx=0;entryDy=0;" edge="1" parent="1" source="eITNYbEl-B6l7h9wtZzs-1" target="eITNYbEl-B6l7h9wtZzs-3">
          <mxGeometry relative="1" as="geometry" />
        </mxCell>
        <mxCell id="eITNYbEl-B6l7h9wtZzs-1" value="Image" style="ellipse;whiteSpace=wrap;html=1;" vertex="1" parent="1">
          <mxGeometry x="160" y="50" width="120" height="80" as="geometry" />
        </mxCell>
        <mxCell id="eITNYbEl-B6l7h9wtZzs-23" style="edgeStyle=orthogonalEdgeStyle;rounded=0;orthogonalLoop=1;jettySize=auto;html=1;exitX=0.5;exitY=1;exitDx=0;exitDy=0;entryX=0.5;entryY=0;entryDx=0;entryDy=0;" edge="1" parent="1" source="eITNYbEl-B6l7h9wtZzs-2" target="eITNYbEl-B6l7h9wtZzs-4">
          <mxGeometry relative="1" as="geometry" />
        </mxCell>
        <mxCell id="eITNYbEl-B6l7h9wtZzs-26" style="edgeStyle=orthogonalEdgeStyle;rounded=0;orthogonalLoop=1;jettySize=auto;html=1;exitX=0.75;exitY=1;exitDx=0;exitDy=0;entryX=0.5;entryY=0;entryDx=0;entryDy=0;" edge="1" parent="1" source="eITNYbEl-B6l7h9wtZzs-2" target="eITNYbEl-B6l7h9wtZzs-6">
          <mxGeometry relative="1" as="geometry" />
        </mxCell>
        <mxCell id="eITNYbEl-B6l7h9wtZzs-2" value="image_left" style="rounded=0;whiteSpace=wrap;html=1;" vertex="1" parent="1">
          <mxGeometry x="60" y="170" width="111.94" height="30" as="geometry" />
        </mxCell>
        <mxCell id="eITNYbEl-B6l7h9wtZzs-24" style="edgeStyle=orthogonalEdgeStyle;rounded=0;orthogonalLoop=1;jettySize=auto;html=1;exitX=0.5;exitY=1;exitDx=0;exitDy=0;entryX=0.5;entryY=0;entryDx=0;entryDy=0;" edge="1" parent="1" source="eITNYbEl-B6l7h9wtZzs-3" target="eITNYbEl-B6l7h9wtZzs-6">
          <mxGeometry relative="1" as="geometry" />
        </mxCell>
        <mxCell id="eITNYbEl-B6l7h9wtZzs-3" value="image_right" style="rounded=0;whiteSpace=wrap;html=1;" vertex="1" parent="1">
          <mxGeometry x="270" y="170" width="111.94" height="30" as="geometry" />
        </mxCell>
        <mxCell id="eITNYbEl-B6l7h9wtZzs-14" style="edgeStyle=orthogonalEdgeStyle;rounded=0;orthogonalLoop=1;jettySize=auto;html=1;exitX=0.5;exitY=1;exitDx=0;exitDy=0;entryX=0.5;entryY=0;entryDx=0;entryDy=0;" edge="1" parent="1" source="eITNYbEl-B6l7h9wtZzs-4" target="eITNYbEl-B6l7h9wtZzs-7">
          <mxGeometry relative="1" as="geometry" />
        </mxCell>
        <mxCell id="eITNYbEl-B6l7h9wtZzs-4" value="MediaPipe 2D" style="ellipse;whiteSpace=wrap;html=1;" vertex="1" parent="1">
          <mxGeometry x="55.97" y="300" width="120" height="80" as="geometry" />
        </mxCell>
        <mxCell id="eITNYbEl-B6l7h9wtZzs-22" style="edgeStyle=orthogonalEdgeStyle;rounded=0;orthogonalLoop=1;jettySize=auto;html=1;exitX=0.5;exitY=1;exitDx=0;exitDy=0;entryX=0.5;entryY=0;entryDx=0;entryDy=0;" edge="1" parent="1" source="eITNYbEl-B6l7h9wtZzs-6" target="eITNYbEl-B6l7h9wtZzs-11">
          <mxGeometry relative="1" as="geometry" />
        </mxCell>
        <mxCell id="eITNYbEl-B6l7h9wtZzs-6" value="MediaPipe Stereo" style="ellipse;whiteSpace=wrap;html=1;" vertex="1" parent="1">
          <mxGeometry x="265.97" y="300" width="120" height="80" as="geometry" />
        </mxCell>
        <mxCell id="eITNYbEl-B6l7h9wtZzs-15" style="edgeStyle=orthogonalEdgeStyle;rounded=0;orthogonalLoop=1;jettySize=auto;html=1;exitX=0.5;exitY=1;exitDx=0;exitDy=0;entryX=0.5;entryY=0;entryDx=0;entryDy=0;" edge="1" parent="1" source="eITNYbEl-B6l7h9wtZzs-7" target="eITNYbEl-B6l7h9wtZzs-8">
          <mxGeometry relative="1" as="geometry" />
        </mxCell>
        <mxCell id="eITNYbEl-B6l7h9wtZzs-7" value="hand_keypoints" style="rounded=0;whiteSpace=wrap;html=1;" vertex="1" parent="1">
          <mxGeometry x="60" y="470" width="111.94" height="30" as="geometry" />
        </mxCell>
        <mxCell id="eITNYbEl-B6l7h9wtZzs-16" style="edgeStyle=orthogonalEdgeStyle;rounded=0;orthogonalLoop=1;jettySize=auto;html=1;exitX=0.5;exitY=1;exitDx=0;exitDy=0;entryX=0.5;entryY=0;entryDx=0;entryDy=0;" edge="1" parent="1" source="eITNYbEl-B6l7h9wtZzs-8" target="eITNYbEl-B6l7h9wtZzs-9">
          <mxGeometry relative="1" as="geometry" />
        </mxCell>
        <mxCell id="eITNYbEl-B6l7h9wtZzs-8" value="BioIK Solver" style="ellipse;whiteSpace=wrap;html=1;" vertex="1" parent="1">
          <mxGeometry x="55.97" y="585" width="120" height="80" as="geometry" />
        </mxCell>
        <mxCell id="eITNYbEl-B6l7h9wtZzs-18" style="edgeStyle=orthogonalEdgeStyle;rounded=0;orthogonalLoop=1;jettySize=auto;html=1;exitX=0.5;exitY=1;exitDx=0;exitDy=0;entryX=0.5;entryY=0;entryDx=0;entryDy=0;" edge="1" parent="1" source="eITNYbEl-B6l7h9wtZzs-9" target="eITNYbEl-B6l7h9wtZzs-10">
          <mxGeometry relative="1" as="geometry" />
        </mxCell>
        <mxCell id="eITNYbEl-B6l7h9wtZzs-9" value="shadow_joints" style="rounded=0;whiteSpace=wrap;html=1;" vertex="1" parent="1">
          <mxGeometry x="60" y="750" width="111.94" height="30" as="geometry" />
        </mxCell>
        <mxCell id="eITNYbEl-B6l7h9wtZzs-10" value="Shadow Control" style="ellipse;whiteSpace=wrap;html=1;" vertex="1" parent="1">
          <mxGeometry x="55.97000000000003" y="870" width="120" height="80" as="geometry" />
        </mxCell>
        <mxCell id="eITNYbEl-B6l7h9wtZzs-21" style="edgeStyle=orthogonalEdgeStyle;rounded=0;orthogonalLoop=1;jettySize=auto;html=1;exitX=0.5;exitY=1;exitDx=0;exitDy=0;entryX=0.5;entryY=0;entryDx=0;entryDy=0;" edge="1" parent="1" source="eITNYbEl-B6l7h9wtZzs-11" target="eITNYbEl-B6l7h9wtZzs-12">
          <mxGeometry relative="1" as="geometry" />
        </mxCell>
        <mxCell id="eITNYbEl-B6l7h9wtZzs-11" value="hand_keypoints" style="rounded=0;whiteSpace=wrap;html=1;" vertex="1" parent="1">
          <mxGeometry x="270" y="470" width="111.94" height="30" as="geometry" />
        </mxCell>
        <mxCell id="eITNYbEl-B6l7h9wtZzs-20" style="edgeStyle=orthogonalEdgeStyle;rounded=0;orthogonalLoop=1;jettySize=auto;html=1;exitX=0.5;exitY=1;exitDx=0;exitDy=0;entryX=0.5;entryY=0;entryDx=0;entryDy=0;" edge="1" parent="1" source="eITNYbEl-B6l7h9wtZzs-12" target="eITNYbEl-B6l7h9wtZzs-13">
          <mxGeometry relative="1" as="geometry" />
        </mxCell>
        <mxCell id="eITNYbEl-B6l7h9wtZzs-12" value="BioIK Solver" style="ellipse;whiteSpace=wrap;html=1;" vertex="1" parent="1">
          <mxGeometry x="265.97" y="585" width="120" height="80" as="geometry" />
        </mxCell>
        <mxCell id="eITNYbEl-B6l7h9wtZzs-19" style="edgeStyle=orthogonalEdgeStyle;rounded=0;orthogonalLoop=1;jettySize=auto;html=1;exitX=0.5;exitY=1;exitDx=0;exitDy=0;entryX=0.5;entryY=0;entryDx=0;entryDy=0;" edge="1" parent="1" source="eITNYbEl-B6l7h9wtZzs-13" target="eITNYbEl-B6l7h9wtZzs-17">
          <mxGeometry relative="1" as="geometry" />
        </mxCell>
        <mxCell id="eITNYbEl-B6l7h9wtZzs-13" value="shadow_joints" style="rounded=0;whiteSpace=wrap;html=1;" vertex="1" parent="1">
          <mxGeometry x="270" y="750" width="111.94" height="30" as="geometry" />
        </mxCell>
        <mxCell id="eITNYbEl-B6l7h9wtZzs-17" value="Shadow Control" style="ellipse;whiteSpace=wrap;html=1;" vertex="1" parent="1">
          <mxGeometry x="265.97" y="870" width="120" height="80" as="geometry" />
        </mxCell>
      </root>
    </mxGraphModel>
  </diagram>
</mxfile>
